<svg xmlns="http://www.w3.org/2000/svg" viewBox="0 0 64 64">
  <rect width="64" height="64" rx="16" fill="#0f766e"/>
  <path
    d="M20 15h24a4 4 0 0 1 4 4v30a4 4 0 0 1-4 4H20a4 4 0 0 1-4-4V19a4 4 0 0 1 4-4Z"
    fill="#ecfeff"
  />
  <path
    d="M24 27h16M24 36h16M24 45h10"
    stroke="#0f766e"
    stroke-width="4"
    stroke-linecap="round"
  />
  <circle cx="24" cy="19" r="3" fill="#f59e0b"/>
  <circle cx="32" cy="19" r="3" fill="#f59e0b"/>
  <circle cx="40" cy="19" r="3" fill="#f59e0b"/>
  <path
    d="m42 42 5 5 9-11"
    fill="none"
    stroke="#f59e0b"
    stroke-width="5"
    stroke-linecap="round"
    stroke-linejoin="round"
  />
</svg>
